<svg xmlns="http://www.w3.org/2000/svg" viewBox="0 0 1320 1320">
    <style>
        svg {
		max-height: 100vh;
        }
        path {
            fill: #fbe7cd;
        }
    </style>
        <path fill-rule="evenodd" d="M1255.7 942.532c1 .473 2.19.046 2.66-.954a659.905 659.905 0 0 0 55.53-377.195A659.988 659.988 0 0 0 821.632 20.798 660.003 660.003 0 0 0 1.805 628.29a659.99 659.99 0 0 0 92.948 371.73 660.022 660.022 0 0 0 282 256.59 2 2 0 0 0 2.663-.95l28.642-60.49c.473-1 .045-2.2-.951-2.67a589.072 589.072 0 0 1 55.67-1086.266 589.07 589.07 0 0 1 341.591-16.638A589.034 589.034 0 0 1 1097.63 265.54a589.063 589.063 0 0 1 146.1 309.221 589.175 589.175 0 0 1-49.47 336.463c-.47 1-.05 2.193.95 2.666z"/>
        <path fill-rule="evenodd" d="M1102.24 339.73a1.997 1.997 0 0 1 2.79.45 548.101 548.101 0 0 1 102.58 299.137 548.002 548.002 0 0 1-318.994 518.663 547.957 547.957 0 0 1-315.222 43.08 548.02 548.02 0 0 1-286.032-139.31A547.976 547.976 0 0 1 126.93 787.014a548.005 548.005 0 0 1 210.057-569.752 1.994 1.994 0 0 1 2.791.444l39.929 55.144a2.007 2.007 0 0 1-.445 2.797 475.918 475.918 0 0 0-42.884 733.253 475.839 475.839 0 0 0 248.408 120.98c92.944 14.88 188.213 1.86 273.758-37.41s157.526-103.024 206.836-183.202a475.866 475.866 0 0 0 70.19-267.237 475.818 475.818 0 0 0-88.93-259.575 2.016 2.016 0 0 1 .45-2.797z"/>
        <path fill-rule="evenodd" d="M905.842 1016.4a1.993 1.993 0 0 0 2.78.5A434.951 434.951 0 0 0 1064.3 820.483a434.962 434.962 0 0 0 21.05-251.669 434.997 434.997 0 0 0-597.711-308.256 434.993 434.993 0 0 0-262.587 405.797 435.006 435.006 0 0 0 75.729 238.918 1.994 1.994 0 0 0 2.779.514l55.042-37.962a2.01 2.01 0 0 0 .515-2.786 364.14 364.14 0 0 1 156.601-539.418 364.138 364.138 0 0 1 500.342 258.04 364.137 364.137 0 0 1-147.672 374.906 2.01 2.01 0 0 0-.508 2.787z"/>
    </svg>