<svg viewBox="0 0 16 16" xmlns="http://www.w3.org/2000/svg">
<style>
        svg {
		width: 40px;
		height: 40px;
        }
        path {
            fill: #2e2f33;
        }
    </style>
<path fill-rule="evenodd" clip-rule="evenodd" d="M10.3111 11.4424l2.737 2.736c.312.312.819.312 1.131 0 .312-.312.312-.819 0-1.131l-2.736-2.736c.745-.97198 1.185-2.18898 1.185-3.50898 0-3.212-2.607-5.82-5.81696-5.82-3.21 0-5.817 2.608-5.817 5.82 0 3.21298 2.607 5.82098 5.817 5.82098 1.315 0 2.528-.438 3.49996-1.181zM6.81114 2.58242c2.327 0 4.21696 1.891 4.21696 4.22 0 2.329-1.88996 4.22098-4.21696 4.22098-2.328 0-4.217-1.89198-4.217-4.22098 0-2.329 1.889-4.22 4.217-4.22z">
  </path>
 </svg>
